<mxfile host="Electron" modified="2024-09-15T04:37:28.471Z" agent="Mozilla/5.0 (Windows NT 10.0; Win64; x64) AppleWebKit/537.36 (KHTML, like Gecko) draw.io/24.2.5 Chrome/120.0.6099.109 Electron/28.1.0 Safari/537.36" etag="yfIs_TQ6HzdCTzwxDYvB" version="24.2.5" type="device">
  <diagram name="PÃ¡gina-1" id="ARkOmNwCxBWhTtdhmTux">
    <mxGraphModel dx="1318" dy="638" grid="1" gridSize="10" guides="1" tooltips="1" connect="1" arrows="1" fold="1" page="1" pageScale="1" pageWidth="4000" pageHeight="4000" math="0" shadow="0">
      <root>
        <mxCell id="0" />
        <mxCell id="1" parent="0" />
        <mxCell id="1vcQfMMVuh5o283aAZHu-55" style="edgeStyle=orthogonalEdgeStyle;rounded=0;orthogonalLoop=1;jettySize=auto;html=1;exitX=0.5;exitY=1;exitDx=0;exitDy=0;exitPerimeter=0;" edge="1" parent="1" source="1vcQfMMVuh5o283aAZHu-1" target="1vcQfMMVuh5o283aAZHu-54">
          <mxGeometry relative="1" as="geometry" />
        </mxCell>
        <mxCell id="1vcQfMMVuh5o283aAZHu-1" value="Main" style="strokeWidth=2;html=1;shape=mxgraph.flowchart.start_1;whiteSpace=wrap;" vertex="1" parent="1">
          <mxGeometry x="140" y="50" width="100" height="60" as="geometry" />
        </mxCell>
        <mxCell id="1vcQfMMVuh5o283aAZHu-4" style="edgeStyle=orthogonalEdgeStyle;rounded=0;orthogonalLoop=1;jettySize=auto;html=1;exitX=0.5;exitY=1;exitDx=0;exitDy=0;exitPerimeter=0;entryX=0.5;entryY=0;entryDx=0;entryDy=0;" edge="1" parent="1" source="1vcQfMMVuh5o283aAZHu-2" target="1vcQfMMVuh5o283aAZHu-3">
          <mxGeometry relative="1" as="geometry" />
        </mxCell>
        <mxCell id="1vcQfMMVuh5o283aAZHu-2" value="QuickSort (datos, l, r)" style="strokeWidth=2;html=1;shape=mxgraph.flowchart.start_1;whiteSpace=wrap;" vertex="1" parent="1">
          <mxGeometry x="540" y="40" width="100" height="60" as="geometry" />
        </mxCell>
        <mxCell id="1vcQfMMVuh5o283aAZHu-3" value="m=(l+r)/2&lt;div&gt;val=datos[m]&lt;br&gt;&lt;div&gt;ind=l&lt;/div&gt;&lt;div&gt;i=l&lt;/div&gt;&lt;/div&gt;" style="rounded=1;whiteSpace=wrap;html=1;absoluteArcSize=1;arcSize=14;strokeWidth=2;" vertex="1" parent="1">
          <mxGeometry x="540" y="130" width="100" height="70" as="geometry" />
        </mxCell>
        <mxCell id="1vcQfMMVuh5o283aAZHu-26" style="edgeStyle=orthogonalEdgeStyle;rounded=0;orthogonalLoop=1;jettySize=auto;html=1;exitX=0;exitY=0.5;exitDx=0;exitDy=0;exitPerimeter=0;entryX=0.5;entryY=0;entryDx=0;entryDy=0;" edge="1" parent="1" source="1vcQfMMVuh5o283aAZHu-5" target="1vcQfMMVuh5o283aAZHu-25">
          <mxGeometry relative="1" as="geometry" />
        </mxCell>
        <mxCell id="1vcQfMMVuh5o283aAZHu-5" value="i&amp;lt;=r" style="strokeWidth=2;html=1;shape=mxgraph.flowchart.decision;whiteSpace=wrap;" vertex="1" parent="1">
          <mxGeometry x="550" y="240" width="80" height="80" as="geometry" />
        </mxCell>
        <mxCell id="1vcQfMMVuh5o283aAZHu-6" style="edgeStyle=orthogonalEdgeStyle;rounded=0;orthogonalLoop=1;jettySize=auto;html=1;exitX=0.5;exitY=1;exitDx=0;exitDy=0;entryX=0.5;entryY=0;entryDx=0;entryDy=0;entryPerimeter=0;" edge="1" parent="1" source="1vcQfMMVuh5o283aAZHu-3" target="1vcQfMMVuh5o283aAZHu-5">
          <mxGeometry relative="1" as="geometry" />
        </mxCell>
        <mxCell id="1vcQfMMVuh5o283aAZHu-19" style="edgeStyle=orthogonalEdgeStyle;rounded=0;orthogonalLoop=1;jettySize=auto;html=1;exitX=1;exitY=0.5;exitDx=0;exitDy=0;exitPerimeter=0;entryX=0.5;entryY=0;entryDx=0;entryDy=0;" edge="1" parent="1" source="1vcQfMMVuh5o283aAZHu-8" target="1vcQfMMVuh5o283aAZHu-11">
          <mxGeometry relative="1" as="geometry" />
        </mxCell>
        <mxCell id="1vcQfMMVuh5o283aAZHu-22" style="edgeStyle=orthogonalEdgeStyle;rounded=0;orthogonalLoop=1;jettySize=auto;html=1;exitX=0;exitY=0.5;exitDx=0;exitDy=0;exitPerimeter=0;" edge="1" parent="1" source="1vcQfMMVuh5o283aAZHu-8">
          <mxGeometry relative="1" as="geometry">
            <mxPoint x="640" y="520" as="targetPoint" />
          </mxGeometry>
        </mxCell>
        <mxCell id="1vcQfMMVuh5o283aAZHu-8" value="datos[i]&amp;lt;val" style="strokeWidth=2;html=1;shape=mxgraph.flowchart.decision;whiteSpace=wrap;" vertex="1" parent="1">
          <mxGeometry x="640" y="320" width="80" height="80" as="geometry" />
        </mxCell>
        <mxCell id="1vcQfMMVuh5o283aAZHu-9" style="edgeStyle=orthogonalEdgeStyle;rounded=0;orthogonalLoop=1;jettySize=auto;html=1;exitX=1;exitY=0.5;exitDx=0;exitDy=0;exitPerimeter=0;entryX=0.5;entryY=0;entryDx=0;entryDy=0;entryPerimeter=0;" edge="1" parent="1" source="1vcQfMMVuh5o283aAZHu-5" target="1vcQfMMVuh5o283aAZHu-8">
          <mxGeometry relative="1" as="geometry" />
        </mxCell>
        <mxCell id="1vcQfMMVuh5o283aAZHu-10" value="Si" style="text;html=1;align=center;verticalAlign=middle;whiteSpace=wrap;rounded=0;" vertex="1" parent="1">
          <mxGeometry x="620" y="250" width="60" height="30" as="geometry" />
        </mxCell>
        <mxCell id="1vcQfMMVuh5o283aAZHu-21" style="edgeStyle=orthogonalEdgeStyle;rounded=0;orthogonalLoop=1;jettySize=auto;html=1;exitX=0.5;exitY=1;exitDx=0;exitDy=0;" edge="1" parent="1" source="1vcQfMMVuh5o283aAZHu-11" target="1vcQfMMVuh5o283aAZHu-20">
          <mxGeometry relative="1" as="geometry" />
        </mxCell>
        <mxCell id="1vcQfMMVuh5o283aAZHu-11" value="swap(datos[i], datos[ind])&lt;div&gt;ind++&lt;/div&gt;" style="rounded=1;whiteSpace=wrap;html=1;absoluteArcSize=1;arcSize=14;strokeWidth=2;" vertex="1" parent="1">
          <mxGeometry x="720" y="410" width="100" height="70" as="geometry" />
        </mxCell>
        <mxCell id="1vcQfMMVuh5o283aAZHu-13" value="Si" style="text;html=1;align=center;verticalAlign=middle;whiteSpace=wrap;rounded=0;" vertex="1" parent="1">
          <mxGeometry x="720" y="320" width="60" height="30" as="geometry" />
        </mxCell>
        <mxCell id="1vcQfMMVuh5o283aAZHu-20" value="i++" style="rounded=1;whiteSpace=wrap;html=1;absoluteArcSize=1;arcSize=14;strokeWidth=2;" vertex="1" parent="1">
          <mxGeometry x="590" y="520" width="100" height="70" as="geometry" />
        </mxCell>
        <mxCell id="1vcQfMMVuh5o283aAZHu-23" value="No" style="text;html=1;align=center;verticalAlign=middle;whiteSpace=wrap;rounded=0;" vertex="1" parent="1">
          <mxGeometry x="600" y="330" width="60" height="30" as="geometry" />
        </mxCell>
        <mxCell id="1vcQfMMVuh5o283aAZHu-24" value="" style="endArrow=classic;html=1;rounded=0;exitX=0.5;exitY=1;exitDx=0;exitDy=0;" edge="1" parent="1" source="1vcQfMMVuh5o283aAZHu-20">
          <mxGeometry width="50" height="50" relative="1" as="geometry">
            <mxPoint x="730" y="620" as="sourcePoint" />
            <mxPoint x="590" y="210" as="targetPoint" />
            <Array as="points">
              <mxPoint x="640" y="630" />
              <mxPoint x="880" y="640" />
              <mxPoint x="870" y="220" />
            </Array>
          </mxGeometry>
        </mxCell>
        <mxCell id="1vcQfMMVuh5o283aAZHu-25" value="i=ind" style="rounded=1;whiteSpace=wrap;html=1;absoluteArcSize=1;arcSize=14;strokeWidth=2;" vertex="1" parent="1">
          <mxGeometry x="350" y="310" width="100" height="30" as="geometry" />
        </mxCell>
        <mxCell id="1vcQfMMVuh5o283aAZHu-27" value="No" style="text;html=1;align=center;verticalAlign=middle;whiteSpace=wrap;rounded=0;" vertex="1" parent="1">
          <mxGeometry x="490" y="240" width="60" height="30" as="geometry" />
        </mxCell>
        <mxCell id="1vcQfMMVuh5o283aAZHu-31" style="edgeStyle=orthogonalEdgeStyle;rounded=0;orthogonalLoop=1;jettySize=auto;html=1;exitX=1;exitY=0.5;exitDx=0;exitDy=0;exitPerimeter=0;entryX=0.5;entryY=0;entryDx=0;entryDy=0;" edge="1" parent="1" source="1vcQfMMVuh5o283aAZHu-28" target="1vcQfMMVuh5o283aAZHu-30">
          <mxGeometry relative="1" as="geometry" />
        </mxCell>
        <mxCell id="1vcQfMMVuh5o283aAZHu-35" style="edgeStyle=orthogonalEdgeStyle;rounded=0;orthogonalLoop=1;jettySize=auto;html=1;exitX=0;exitY=0.5;exitDx=0;exitDy=0;exitPerimeter=0;entryX=0.5;entryY=0;entryDx=0;entryDy=0;" edge="1" parent="1" source="1vcQfMMVuh5o283aAZHu-28" target="1vcQfMMVuh5o283aAZHu-34">
          <mxGeometry relative="1" as="geometry" />
        </mxCell>
        <mxCell id="1vcQfMMVuh5o283aAZHu-28" value="datos[i]!=val" style="strokeWidth=2;html=1;shape=mxgraph.flowchart.decision;whiteSpace=wrap;" vertex="1" parent="1">
          <mxGeometry x="352.5" y="370" width="95" height="70" as="geometry" />
        </mxCell>
        <mxCell id="1vcQfMMVuh5o283aAZHu-29" style="edgeStyle=orthogonalEdgeStyle;rounded=0;orthogonalLoop=1;jettySize=auto;html=1;exitX=0.5;exitY=1;exitDx=0;exitDy=0;entryX=0.5;entryY=0;entryDx=0;entryDy=0;entryPerimeter=0;" edge="1" parent="1" source="1vcQfMMVuh5o283aAZHu-25" target="1vcQfMMVuh5o283aAZHu-28">
          <mxGeometry relative="1" as="geometry" />
        </mxCell>
        <mxCell id="1vcQfMMVuh5o283aAZHu-30" value="i++" style="rounded=1;whiteSpace=wrap;html=1;absoluteArcSize=1;arcSize=14;strokeWidth=2;" vertex="1" parent="1">
          <mxGeometry x="440" y="450" width="100" height="30" as="geometry" />
        </mxCell>
        <mxCell id="1vcQfMMVuh5o283aAZHu-32" value="Si" style="text;html=1;align=center;verticalAlign=middle;whiteSpace=wrap;rounded=0;" vertex="1" parent="1">
          <mxGeometry x="440" y="370" width="60" height="30" as="geometry" />
        </mxCell>
        <mxCell id="1vcQfMMVuh5o283aAZHu-33" value="" style="endArrow=classic;html=1;rounded=0;exitX=0.5;exitY=1;exitDx=0;exitDy=0;" edge="1" parent="1" source="1vcQfMMVuh5o283aAZHu-30">
          <mxGeometry width="50" height="50" relative="1" as="geometry">
            <mxPoint x="530" y="550" as="sourcePoint" />
            <mxPoint x="400" y="360" as="targetPoint" />
            <Array as="points">
              <mxPoint x="490" y="500" />
              <mxPoint x="560" y="500" />
              <mxPoint x="560" y="360" />
            </Array>
          </mxGeometry>
        </mxCell>
        <mxCell id="1vcQfMMVuh5o283aAZHu-34" value="swap(datos[i], datos[ind])" style="rounded=1;whiteSpace=wrap;html=1;absoluteArcSize=1;arcSize=14;strokeWidth=2;" vertex="1" parent="1">
          <mxGeometry x="280" y="450" width="100" height="50" as="geometry" />
        </mxCell>
        <mxCell id="1vcQfMMVuh5o283aAZHu-36" value="QuickSort(l, ind-1)" style="rounded=1;whiteSpace=wrap;html=1;absoluteArcSize=1;arcSize=14;strokeWidth=2;" vertex="1" parent="1">
          <mxGeometry x="370" y="610" width="120" height="50" as="geometry" />
        </mxCell>
        <mxCell id="1vcQfMMVuh5o283aAZHu-37" value="QuickSort(ind+1, r)" style="rounded=1;whiteSpace=wrap;html=1;absoluteArcSize=1;arcSize=14;strokeWidth=2;" vertex="1" parent="1">
          <mxGeometry x="477.5" y="780" width="120" height="50" as="geometry" />
        </mxCell>
        <mxCell id="1vcQfMMVuh5o283aAZHu-40" style="edgeStyle=orthogonalEdgeStyle;rounded=0;orthogonalLoop=1;jettySize=auto;html=1;exitX=1;exitY=0.5;exitDx=0;exitDy=0;exitPerimeter=0;entryX=0.5;entryY=0;entryDx=0;entryDy=0;" edge="1" parent="1" source="1vcQfMMVuh5o283aAZHu-38" target="1vcQfMMVuh5o283aAZHu-36">
          <mxGeometry relative="1" as="geometry" />
        </mxCell>
        <mxCell id="1vcQfMMVuh5o283aAZHu-38" value="l&amp;lt;ind-1" style="strokeWidth=2;html=1;shape=mxgraph.flowchart.decision;whiteSpace=wrap;" vertex="1" parent="1">
          <mxGeometry x="290" y="530" width="80" height="70" as="geometry" />
        </mxCell>
        <mxCell id="1vcQfMMVuh5o283aAZHu-39" style="edgeStyle=orthogonalEdgeStyle;rounded=0;orthogonalLoop=1;jettySize=auto;html=1;exitX=0.5;exitY=1;exitDx=0;exitDy=0;entryX=0.5;entryY=0;entryDx=0;entryDy=0;entryPerimeter=0;" edge="1" parent="1" source="1vcQfMMVuh5o283aAZHu-34" target="1vcQfMMVuh5o283aAZHu-38">
          <mxGeometry relative="1" as="geometry" />
        </mxCell>
        <mxCell id="1vcQfMMVuh5o283aAZHu-45" style="edgeStyle=orthogonalEdgeStyle;rounded=0;orthogonalLoop=1;jettySize=auto;html=1;exitX=1;exitY=0.5;exitDx=0;exitDy=0;exitPerimeter=0;entryX=0.5;entryY=0;entryDx=0;entryDy=0;" edge="1" parent="1" source="1vcQfMMVuh5o283aAZHu-42" target="1vcQfMMVuh5o283aAZHu-37">
          <mxGeometry relative="1" as="geometry" />
        </mxCell>
        <mxCell id="1vcQfMMVuh5o283aAZHu-42" value="ind+1&amp;lt;r" style="strokeWidth=2;html=1;shape=mxgraph.flowchart.decision;whiteSpace=wrap;" vertex="1" parent="1">
          <mxGeometry x="382.5" y="690" width="95" height="70" as="geometry" />
        </mxCell>
        <mxCell id="1vcQfMMVuh5o283aAZHu-43" style="edgeStyle=orthogonalEdgeStyle;rounded=0;orthogonalLoop=1;jettySize=auto;html=1;exitX=0.5;exitY=1;exitDx=0;exitDy=0;entryX=0.5;entryY=0;entryDx=0;entryDy=0;entryPerimeter=0;" edge="1" parent="1" source="1vcQfMMVuh5o283aAZHu-36" target="1vcQfMMVuh5o283aAZHu-42">
          <mxGeometry relative="1" as="geometry" />
        </mxCell>
        <mxCell id="1vcQfMMVuh5o283aAZHu-44" style="edgeStyle=orthogonalEdgeStyle;rounded=0;orthogonalLoop=1;jettySize=auto;html=1;exitX=0;exitY=0.5;exitDx=0;exitDy=0;exitPerimeter=0;entryX=0.5;entryY=0;entryDx=0;entryDy=0;entryPerimeter=0;" edge="1" parent="1" source="1vcQfMMVuh5o283aAZHu-38" target="1vcQfMMVuh5o283aAZHu-42">
          <mxGeometry relative="1" as="geometry">
            <Array as="points">
              <mxPoint x="270" y="565" />
              <mxPoint x="270" y="690" />
            </Array>
          </mxGeometry>
        </mxCell>
        <mxCell id="1vcQfMMVuh5o283aAZHu-46" value="Fin" style="strokeWidth=2;html=1;shape=mxgraph.flowchart.terminator;whiteSpace=wrap;" vertex="1" parent="1">
          <mxGeometry x="487.5" y="870" width="100" height="60" as="geometry" />
        </mxCell>
        <mxCell id="1vcQfMMVuh5o283aAZHu-47" style="edgeStyle=orthogonalEdgeStyle;rounded=0;orthogonalLoop=1;jettySize=auto;html=1;exitX=0.5;exitY=1;exitDx=0;exitDy=0;entryX=0.5;entryY=0;entryDx=0;entryDy=0;entryPerimeter=0;" edge="1" parent="1" source="1vcQfMMVuh5o283aAZHu-37" target="1vcQfMMVuh5o283aAZHu-46">
          <mxGeometry relative="1" as="geometry" />
        </mxCell>
        <mxCell id="1vcQfMMVuh5o283aAZHu-48" style="edgeStyle=orthogonalEdgeStyle;rounded=0;orthogonalLoop=1;jettySize=auto;html=1;exitX=0;exitY=0.5;exitDx=0;exitDy=0;exitPerimeter=0;entryX=0;entryY=0.5;entryDx=0;entryDy=0;entryPerimeter=0;" edge="1" parent="1" source="1vcQfMMVuh5o283aAZHu-42" target="1vcQfMMVuh5o283aAZHu-46">
          <mxGeometry relative="1" as="geometry" />
        </mxCell>
        <mxCell id="1vcQfMMVuh5o283aAZHu-49" value="Si" style="text;html=1;align=center;verticalAlign=middle;whiteSpace=wrap;rounded=0;" vertex="1" parent="1">
          <mxGeometry x="360" y="530" width="60" height="30" as="geometry" />
        </mxCell>
        <mxCell id="1vcQfMMVuh5o283aAZHu-50" value="Si" style="text;html=1;align=center;verticalAlign=middle;whiteSpace=wrap;rounded=0;" vertex="1" parent="1">
          <mxGeometry x="470" y="690" width="60" height="30" as="geometry" />
        </mxCell>
        <mxCell id="1vcQfMMVuh5o283aAZHu-51" value="No" style="text;html=1;align=center;verticalAlign=middle;whiteSpace=wrap;rounded=0;" vertex="1" parent="1">
          <mxGeometry x="300" y="370" width="60" height="30" as="geometry" />
        </mxCell>
        <mxCell id="1vcQfMMVuh5o283aAZHu-52" value="No" style="text;html=1;align=center;verticalAlign=middle;whiteSpace=wrap;rounded=0;" vertex="1" parent="1">
          <mxGeometry x="240" y="530" width="60" height="30" as="geometry" />
        </mxCell>
        <mxCell id="1vcQfMMVuh5o283aAZHu-53" value="No" style="text;html=1;align=center;verticalAlign=middle;whiteSpace=wrap;rounded=0;" vertex="1" parent="1">
          <mxGeometry x="330" y="700" width="60" height="30" as="geometry" />
        </mxCell>
        <mxCell id="1vcQfMMVuh5o283aAZHu-54" value="QuickSort(0, n-1)" style="rounded=1;whiteSpace=wrap;html=1;absoluteArcSize=1;arcSize=14;strokeWidth=2;" vertex="1" parent="1">
          <mxGeometry x="140" y="160" width="100" height="30" as="geometry" />
        </mxCell>
        <mxCell id="1vcQfMMVuh5o283aAZHu-56" value="Fin" style="strokeWidth=2;html=1;shape=mxgraph.flowchart.terminator;whiteSpace=wrap;" vertex="1" parent="1">
          <mxGeometry x="140" y="225" width="100" height="60" as="geometry" />
        </mxCell>
        <mxCell id="1vcQfMMVuh5o283aAZHu-57" style="edgeStyle=orthogonalEdgeStyle;rounded=0;orthogonalLoop=1;jettySize=auto;html=1;exitX=0.5;exitY=1;exitDx=0;exitDy=0;entryX=0.5;entryY=0;entryDx=0;entryDy=0;entryPerimeter=0;" edge="1" parent="1" source="1vcQfMMVuh5o283aAZHu-54" target="1vcQfMMVuh5o283aAZHu-56">
          <mxGeometry relative="1" as="geometry" />
        </mxCell>
      </root>
    </mxGraphModel>
  </diagram>
</mxfile>
